<svg width="9" height="9" viewBox="0 0 9 9" fill="none" xmlns="http://www.w3.org/2000/svg">
    <path d="M7.80577 6.30671L5.55717 4.05811L7.80577 1.80951C8.2197 1.39559 8.2197 0.724378 7.80577 0.310448C7.39184 -0.103481 6.72063 -0.103481 6.30671 0.310448L4.05811 2.55905L1.80951 0.310448C1.39558 -0.103481 0.724369 -0.103481 0.310439 0.310448C-0.10349 0.724378 -0.103491 1.39559 0.310439 1.80951L2.55904 4.05811L0.310439 6.30671C-0.10349 6.72064 -0.10349 7.39185 0.310439 7.80578C0.724369 8.21971 1.39558 8.21971 1.80951 7.80578L4.05811 5.55718L6.30671 7.80578C6.72063 8.21971 7.39184 8.21971 7.80577 7.80578C8.2197 7.39185 8.2197 6.72064 7.80577 6.30671Z"
    />
</svg>
